<?xml version="1.0" standalone="no"?>
<!DOCTYPE svg PUBLIC "-//W3C//DTD SVG 1.1//EN" "http://www.w3.org/Graphics/SVG/1.1/DTD/svg11.dtd">
<svg xmlns="http://www.w3.org/2000/svg" id="Camada_1" data-name="Camada 1" viewBox="0 0 1920 1080" width="1920" height="1080"><defs><style>.cls-1{fill:#e0b157;}.cls-2{fill:#fff;}</style></defs><path class="cls-1" d="M423.51,167.07C218.86,167.13,50.89,333.75,50.89,536.7,48.4,749.2,224.79,912.89,423,912.93c198.48,0,373.36-162.16,373.46-371.88C796.55,334.46,629.42,167,423.51,167.07ZM423,907.33C220.56,906.43,53.73,742.74,56.3,533.7c2.45-199.06,167.14-361.22,368.48-360.64,196.29.56,366.11,157.78,365.87,368.4C790.43,746.28,624.06,906.76,423,907.33Z"/><path class="cls-1" d="M235.66,389.06c20.5,43.73-4.29,89.81-51.6,97.68-3.14.52-5.94,5.06-9.67,1.23-2.84-2.92-6.8-3.48-10.42-4.77-16.63-5.9-24.89-17.67-23.64-33.63.81-10.21,10.63-21,20.47-22.19,6.33-.77,11.71,2.63,17.43,4.49,11.11,3.63,19.16.66,23.76-8.72,4.13-8.44,1.31-17.49-7.42-23.79-14.89-10.76-35.39-11.33-50.27,0-17.24,13.13-27.27,30.8-25,52.92,2.34,23.13,13.1,41.34,35.75,50.69,6.14,2.53,12.22,6.75,17.8-1.6,1.08,4.58,2.53,8,7.62,7.58,31.63-2.74,65.16-18.36,78.45-55.47,6.65-18.58,9.13-38,12.42-57.31,6.54-38.34,12.63-76.65,27.9-112.94,13.57-32.27,31.51-59.49,67.11-70.47,23.21-7.16,45.83-8.59,67.32,5.26,0,0,0,0,0,.06h.09l-.11-.1c1,.12,1.78.51,1.75,1.67,2.55-.23,4.43.53,5,3.32a3,3,0,0,1,3.34,1.7c13.65,9.91,21.61,22.91,22.11,40.12.26,9.28-2.14,18-4.8,26.73-2,6.45,2.36,12.14,10.06,14.56,6.6,2.09,8.29-2.95,10-7.19a75.59,75.59,0,0,0,4-41.44c-5.81-33.25-38-74.62-88.64-68.2a415.94,415.94,0,0,0-106.85,28.23c-35.12,14.5-68.1,32.86-97.34,57.4-9.17,7.68-9.44,10-4.1,20.5C204,326.58,220.81,357.36,235.66,389.06ZM168.21,496.69c-2,5-5.49,3.29-8.9,1.93-21.7-8.64-34.2-27.43-34.38-56,2.2-16.28,10.28-33.09,30.13-42.39,13.52-6.34,25.88-3.33,37.33,4.89,5,3.61,7.74,8.76,4.62,15.16s-8.56,8.21-15.24,6.46c-2.92-.77-5.75-1.92-8.62-2.89-21.49-7.24-42.6,11.2-38.59,33.63,2.59,14.48,10.39,24.64,24.25,29.94a35.92,35.92,0,0,0,4.62,1.81C167.62,490.12,170,492.06,168.21,496.69Zm31.37-220.54c50.14-39.07,106.82-63.6,168.87-76.41,17.89-3.69,35.68-7.71,54-3.43C464,206,490.79,254.56,476.39,294c-.88,2.41-.67,6.88-5.59,5-3.75-1.39-4.93-4-3.6-7.87,7.21-21.05,7.35-41.36-7.68-59.39-16.47-19.76-37.7-30-67.31-30.53-37.89,3.83-70.12,21.51-89.44,60.24-18.6,37.27-28,77-34.77,117.72-4.3,25.79-6.52,52.05-16.42,76.66-11.94,29.65-40.89,43.58-67.31,46.75-2,.24-4.26.44-3.84-2.6.5-3.55,1.06-6.37,6.08-7.2,18-3,33.92-10.9,44.9-25.63,18.59-24.92,22.87-52.57,9.32-81-14.35-30.12-30.25-59.51-45.52-89.2C188.81,284.53,188.77,284.57,199.58,276.15Z"/><path class="cls-1" d="M708.71,703.59l.08-.06,0,0Z"/><path class="cls-1" d="M771.64,488.15c-3.12-28.46-3.66-28.74-31.79-29.87-32-1.28-64-1.69-95.85-4.79-35.13-3.43-64.11-41.52-59.16-76.39,1.18-8.33,6.95-15.59,5-24.49-.4-1.81,1.36-2.26,2.76-2,4.42.83,6.43-2.37,8.81-5A37,37,0,0,1,617,335.11c12.91-4.41,28.05,1,34.58,12.39,6.68,11.61,4.21,21.19-8.1,31.48-1.27,1.06-2.53,2.15-3.71,3.3-7.72,7.52-8.85,15.54-3.39,23.75,4.84,7.28,13.83,10.08,22.78,6.2,14.34-6.21,24-16.67,26.22-32.63,3.22-22.67-10.6-49.25-30.34-58.86-25.14-12.23-53.71-8-71.39,10.2-3.5,3.6-.18,8-2,10.38s-7.11.47-9.16,5.2c-13.5,31.06-15.35,61.47,5.24,90.35,13.8,19.37,33.37,32.81,51.36,47.78,29.93,24.92,59.72,49.83,82.81,81.78,18,24.92,30.84,50.88,25.15,82.9-3.76,21.14-10.5,40.49-28.26,54.2-2.21,2.62-4.3,5.43-8.34,5-.45.91-.72,2.14-1.45,2.58-24.17,14.32-52.92,16.2-74.65-9.23-7.08-8.28-14.72-9.42-21.06-2.49-6.77,7.4.56,12,4.67,16.61,34.68,38.61,110.79,32.68,134-23.69a442,442,0,0,0,19.12-59A403.55,403.55,0,0,0,771.64,488.15Zm-181-155.29c10-7.87,20.76-13.51,33.83-13.52,27.47,0,48.91,17,55,43.46,4.08,17.64-4.1,35.13-20,43-6.55,3.24-12.8,3.88-17.83-2.42-4.54-5.69-3.18-12,3.4-18.13a13.73,13.73,0,0,1,1.85-1.65c16.22-10.25,17.73-27.52,7.52-42.34-9.23-13.39-30.24-17.64-45.32-9.14-4.09,2.31-8,4.95-11,8.6-2.71,3.31-4.88,3.7-7.85.25C587.61,337.89,587,335.72,590.67,332.86Zm170.52,273c-5.11,27.46-13.37,54-22.87,80.23-19.2,53-86,61.94-121.3,30.75a41.87,41.87,0,0,1-6.36-6.48c-1.53-2.12-5.46-4.32-1.72-7.52,3.37-2.88,6.44-1.76,9.36,1.33a125.35,125.35,0,0,0,10.77,10.23c18.3,15.29,38.84,16.06,59.92,7.72,35.25-13.93,51-42,54.48-78.26.35-3.55,0-7.17,0-10.75,1.45-24.57-9.53-44.7-22.73-64.2-24-35.45-56.24-62.64-88.89-89.51-15.74-13-32.2-25.14-45.49-40.87C564.5,412.65,564.24,384,575.5,353.84c.65-1.75,1.19-5.29,4-3.71s6.76,3.67,4.37,8.38c-4,7.88-4,16.45-4.84,25C575,423.42,614.43,458.62,649.5,460c34.18,1.36,68.32,3.44,102.49,4.75,7.45.29,10.71,2.74,11.89,10.29C770.72,518.87,769.28,562.44,761.19,605.9Z"/><path class="cls-1" d="M511.63,773.07h0l-.06.07Z"/><path class="cls-1" d="M387,780.16c23.71-35.35,69.7-42.23,101.88-15.15,7.07,6,13,11.19,22.7,8.07,4.15-5,5.89-9.44.48-15.38-26.35-28.89-57.74-39.79-95.55-27.06-26.39,8.88-52.49,18.63-78.67,28.15-35.83,13-72.55,20.94-110.91,19.7C179.36,777,139.4,735,140.33,687.59c.54-27.22,17.68-48,44.15-53.51a41.06,41.06,0,0,0,8-2.09c7.27-3.15,6.71-9.75,5.57-15.66-1.23-6.35-6.54-5.35-11.36-4.61a83.07,83.07,0,0,0-19,5.53c-39,16-69.43,77.59-31.67,125,46.25,58.07,102.51,103.16,171.9,130.91,13.41,5.37,16.35,4.28,24.35-8.16C350.43,836.69,368.26,808.11,387,780.16Zm-74.93,88.35c-50.85-20-95.3-49.61-133.94-88-14.29-14.21-28-28.93-40-45.2-31-42-4.29-106.3,45.26-117,2.94-.64,7.36-3.63,8.69,2.14,1,4.21-1.09,6.58-5.61,7.3-52.69,8.45-61.86,65.13-44.72,98.9,19.49,38.42,51.86,58.08,85.36,58.54,50.3-1.15,88.49-11.37,125.89-25.42,21.42-8,42.66-16.59,64.54-23.43,34.24-10.71,63.67-3.39,87.94,23.24,1.57,1.71,6.31,3.48,2.41,6.91-2.92,2.57-6.19,2.59-9.47-.7-12.86-12.87-28-22-46.54-22.61-26.72-.81-50.77,7.16-66.54,29.8-20.65,29.64-39.76,60.37-59.15,90.87C322.31,869.81,318.78,871.14,312.08,868.51Z"/><path class="cls-1" d="M622.56,776.79q-18.36-37.54-36.64-75.12c-18.8-38.62,4.52-92.53,47.35-98.65a18,18,0,0,0,4-.92c5.72-2.29,8.18-9.48,6-17.1-1.83-6.31-6-8-12.11-6.56A88.84,88.84,0,0,0,596.78,594c-24.32,18.25-37.91,43-45.61,71.91-8.9,33.39-9.57,67.58-11.55,101.7-1.19,20.34-2.69,40.45-10.88,59.82-15.72,37.15-74.35,58.83-103.16,26a5.39,5.39,0,0,0-1.31-1c-4.41-2.62-13.49.3-17.44,5.83-3.58,5-.08,8.18,3.36,11.14C424.78,882,440.87,891,460.94,890.82c6.3-.64,12.65-1,18.9-2,14.47-2.32,28.36-6.81,42.23-11.5,38.35-13,74.94-29.42,108.23-52.72,10.59-7.41,11.16-9.2,5.46-21.13C631.48,794.55,626.92,785.72,622.56,776.79Zm2.61,44.33c-45.78,30.41-95.47,51.54-149.47,62.28a23.74,23.74,0,0,1-4.09.6c-3.3.09-6.62,0-9.93,0-17.69,1.35-32.2-5.92-45.15-17.08-1.76-1.52-6.21-2.65-3.16-6,2.39-2.64,5.72-5.59,9.93-1.68A76.53,76.53,0,0,0,438.92,870c10.44,5.76,21.52,6.72,32.94,5,38.8-6,65.1-33.2,70.9-73.63,3.61-25.17,3-50.65,5-76,2.34-29,6.29-57.74,18.55-84.41,12.79-27.82,33.16-47.89,63.5-56.18,2.79-.76,7.09-2.68,7.72,2.78.46,4,1.48,8.7-4.65,9.67-25.15,4-41.47,19.07-52.08,41.4-11.42,24-9.42,47.65,2.06,71q23.05,46.77,46.35,93.42C634.54,813.66,634.66,814.81,625.17,821.12Z"/><path class="cls-1" d="M373.07,328.47c-8.1-9.84-14.26-5.67-20.94,0-5.33,4.49-4.35,9,3.08,16.79a51.79,51.79,0,0,0,6.11,5.55c26.83,20.42,56.9,26.56,89.83,20.58,35.54-6.45,67.3-22.44,99.1-38.51,21.57-10.91,42.45-23.06,67.31-26.56,35.2-4.95,83.78,26.9,76.54,69.36-.46,2.71-1.17,5.4-1.44,8.13-.49,5.15,6,11.47,13.14,12.76,6.66,1.19,7.94-3.71,8.75-8.45,1.11-6.51,1.74-13.1,2.19-16.67,0-21.16-6.3-37.88-22-55.14a421.85,421.85,0,0,0-126.8-95.51c-14.13-6.95-16-6.29-24.73,6.82C522.85,258.1,502.54,288.66,482,319,457.32,355.39,400.77,362.2,373.07,328.47Zm171.1-91.53c11.15-16.21,6.54-18.52,27.83-7.65,43.43,22.18,81.31,51.85,115,86.88C705.1,335,715.06,357,709,383.94c-.56,2.48,0,6.26-4.45,5.07-3.63-1-6.53-2.37-5.29-7.47,11.84-48.71-41.4-85-78-81.37-24.73,2.44-46,12.84-67.23,23.94-32.06,16.72-64.14,33.37-100,40.6-8.39,1.68-16.83,3-25.5,2.9-25.66-1.25-49.65-7-68.45-26.19-2.52-2.57-7.84-5.27-2.61-9.94,4.34-3.87,8.21-2.93,11.89,1.61,28.43,35,89.59,27.7,113.36-5.88C503.78,297.51,523.55,266.93,544.17,236.94Z"/><path class="cls-1" d="M202.79,600.64c33.33,2.5,60.54,27.31,67.08,60.12,2.27,11.45-1.68,21.77-4.12,32.43C264,701,267.57,706,277.39,709c7.62,2.34,9.85-3.1,11.59-8.46a75.41,75.41,0,0,0,4.11-25.23,121.27,121.27,0,0,0-7.63-39.57c-10.8-28.09-31.62-48.17-54.27-66.56-24.68-20-52.64-35.39-78.54-53.68-26.35-18.61-44.78-42.24-40.44-77,2.43-19.48,9-37.16,28-47,4.13-2.13,8.68-3.45,13-5.27,6.53-2.77,9.05-10.68,5.77-18.42-2.87-6.75-8-4.21-12.66-2.69-21.54,7.09-37.18,20.44-46.71,41.5-8.54,18.85-12.28,38.8-16.39,58.77-7.56,36.73-9.13,73.86-7.1,111.17.77,14.3,2.09,15.26,16.14,16.26C129.09,595.49,166,597.89,202.79,600.64ZM82.08,579.46a413,413,0,0,1,20.15-163.82c7.53-22.71,23.21-37.58,46-45.23,5-1.68,5.91-.11,5.44,4.08.27,3.2-.58,5.46-3.87,6.48-24.43,7.59-37.3,25.08-42.36,49.37-5.61,26.92,1.88,50,19.65,70.44,14,16.16,32.48,26.3,50,37.75,24.47,16,49,31.89,70.15,52.37,22.53,21.82,37.84,47.26,40,79.3a68.4,68.4,0,0,1-3.88,28.45c-1,2.64-1.76,5.82-5.57,4.09-3.07-1.4-7.28-2.23-6.4-7.24a18.59,18.59,0,0,1,1-3.16c16.23-43.78-21.16-92.17-62.25-96.69-21.13-2.33-42.33-3-63.47-4.74-18.41-1.5-36.87-2.37-55.31-3.46C86.12,587.14,82.58,585.81,82.08,579.46Z"/><path class="cls-1" d="M393.67,719.23a309.44,309.44,0,0,0,38.66-14.66c44-20.55,83.1-47.08,107.78-90.64,11.12-19.63,17.09-40.61,15.93-63.32-.47-9.17-4.51-13-12.77-12.63-9.16.4-12,3.49-11.54,13a83.71,83.71,0,0,1-5.44,34.91c-21.25,55-71.42,89.48-130.72,89.77-4.69,0-9.39.12-14.08,0-6.56-.2-9.53,2.89-7.81,9.2,2.68,9.83,5.72,19.57,8.92,29.24C384.36,719.45,388,721,393.67,719.23Zm-9.21-37.45c3.84.22,7.71.05,11.57.05,71.23-.15,122.26-48.13,139.26-105.5a69.28,69.28,0,0,0,2.4-24.58c-.3-4.37.09-7.54,5.7-7.71s6.26,2.9,6.53,7.28c1.82,30.36-9.83,56.16-27.83,79.34-26.6,34.25-62.25,56.32-101.78,72.65-8.14,3.36-16.63,5.84-24.8,9.13-5,2-7.74,1-9.21-4.27q-2.9-10.33-6.31-20.52C378.48,683.18,379.84,681.53,384.46,681.78Z"/><path class="cls-1" d="M283.43,428.64c-1.05,5.7-2.08,11.4-3,17.11-6.69,41.38-6.5,82.54,6.28,122.78,10.85,34.13,29.2,63,62.21,80.24,9.11,4.75,13.55,3.51,17.66-4.62,4.46-8.8,3.36-11.6-6.34-16.48a60.26,60.26,0,0,1-5.71-3.33c-35.8-23-59.19-82.13-51-128.13,3.88-21.81,12.25-41.67,24.16-60.24,4.36-6.8,3.25-9.81-4.28-12.24-6.47-2.08-12.94-4.76-20.05-3.85-2.12.27-3.8-.34-3.85-2.89-1.56.46-3.22,1.44-4.65,1.19C286.3,416.67,284.59,422.33,283.43,428.64Zm36.83.12c5.78,1.69,1.83,5.18.33,7.64-10,16.36-17.94,33.58-21.53,52.51-9.36,49.39,4.69,92,37.88,128.93,6,6.65,13.57,11.27,21.42,15.36,4,2.08,5.11,4.37,3.05,8.53-2.19,4.41-5,4.16-8.83,2.33-22.61-10.9-37.73-29-49.35-50.65-12.37-23-18-48-20.12-73.67-2.56-30.4,0-60.58,6.31-90.44.71-3.34,1-6.85,5.89-6.3C303.64,424.88,312.09,426.36,320.26,428.76Z"/><path class="cls-1" d="M299.59,417a.26.26,0,0,1,0-.09h-.07s0,.08,0,.12Z"/><path class="cls-1" d="M590.85,475.63c-17.25-14.73-35-28.75-54.73-39.91-37.36-21.11-76.6-35.32-120.6-30.52a106.67,106.67,0,0,0-49.9,18.37c-7.08,4.9-7.71,9.69-2.8,16.85s8.43,7.85,15.7,3.08c7.92-5.19,16.28-9.55,25.58-11.35,39.06-7.54,75.75-1.55,109.21,20.55,21.24,14,36.23,33.59,48,55.94,5.2,9.88,8.1,9.75,15.55,1.55,5-5.47,10.61-10.35,15.95-15.49l-.09.1h.11l0-.08,1.58-1.58C599,486.12,597.27,481.12,590.85,475.63Zm-3.72,16a167.49,167.49,0,0,0-12.91,14c-3.63,4.25-5.66,4.52-8.6-1.06C552.83,480.19,536,459.21,512.08,445c-38-22.66-78.34-28.19-120.78-14.62-4.91,1.57-9.48,4.45-13.9,7.21-3.92,2.45-7,4.14-10.27-1-3.41-5.39.22-7.3,3.84-9.65,18.67-12.12,39.3-16.93,61.36-16.73,43.81.59,81.95,17.53,117.71,41.15,12.9,8.52,24.7,18.51,36.62,28.35C591.66,483.79,592,487.11,587.13,491.6Z"/><path class="cls-1" d="M544.07,528.83c8.7-4,5.65-9.91,2.94-15.87-1.37-3-2.62-6.09-4.22-9-22.74-40.81-56.71-64.25-101-67.17-35.53,1.17-62.76,13.76-84.95,37.48-8.52,9.11-7.78,12.92,3.25,18.4,4.71,2.35,8.38,1.65,11.85-2,2.65-2.8,5.29-5.65,8.17-8.21,18.91-16.8,40.91-25.26,66.14-21.31,37.32,5.83,62.58,28,78.64,61.43C529.5,532.12,533.87,533.47,544.07,528.83Zm-80.89-70c-33.78-11.08-64.16-2.69-89.82,22.07-1.79,1.72-3.45,3.57-5.2,5.33-3.72,3.73-6.82.71-9.36-1.42-3-2.54.24-4.34,1.75-6,21.05-22.66,46.57-35.68,62.91-35.88,58.24,0,103.49,31.9,118.6,72.84,1.35,3.67,2.28,6.6-2.64,8.61-5.11,2.09-7.27.42-9.35-4.3C516.8,490,494.12,469,463.18,458.86Z"/><path class="cls-1" d="M355,444.57c-6.8-5.19-9.48-4.51-16,4-.67.88-1.38,1.72-2,2.62-34.67,48.59-34.37,120,16.78,159.93,15.54,12.14,33.13,19.45,52.31,23.12,5.18.48,7.61-1.81,8.41-6.89,1.59-10-.75-13.69-11.25-16.33-36.45-9.15-60.08-33.91-64.94-70.72-3.7-28.06,3-54.23,19.93-77.36C364.2,454.9,363.55,451.05,355,444.57Zm-2.54,16.54c-25.58,35.81-27.88,86-5.34,119,12.33,18,29.49,29.41,50.39,35.3,2.39.67,4.78,1.38,7.2,1.89,5.21,1.12,4.37,5.25,3.84,8.57-.73,4.63-4.18,2.14-6.55,1.67-49.54-9.9-83.06-51.2-83-102.18.07-26.47,8.05-50.37,23.43-71.86,2.61-3.63,4.8-7.74,10.35-3.48C358.17,454.16,355.18,457.35,352.5,461.11Z"/><path class="cls-1" d="M388.06,636c-8.77-1.14-12.07,2.11-13.83,12.31-1.42,8.23,3,10.9,10,11.71a143.62,143.62,0,0,0,42.81-1.3c54.89-10.15,93.08-54.66,93.09-110.51.66-10.44-1.64-22.32-5.39-33.94-1.55-4.82-2.36-11.09-9.92-9.5-9.3,2-13.23,7.73-11.27,15.92.64,2.68,1.63,5.28,2.2,8,7.49,35.13-1.72,64.69-30.67,86.58C442.44,632.38,416.61,639.72,388.06,636Zm95.47-30c20.4-23.56,25.21-51.38,17.09-81.42a33,33,0,0,0-1.39-4.76c-2.11-4.76,1.11-6.6,4.48-8.11,4.69-2.1,5,2.12,5.79,4.69,15,50.16-2.8,100.22-51.74,125.38-22.33,11.49-46.08,16.36-71.27,12.52-3.94-.6-6.85-1-6.17-6.34s3.26-6.25,7.87-5.78a114.63,114.63,0,0,0,11.58.08C432.73,641.9,461.73,631.15,483.53,606Z"/><path class="cls-1" d="M438.12,785.81c12.8.39,18.28,5.68,22,21.21.32,1.33.57,2.69,1,4,3,10.12,10.26,15.56,19.27,14.52,9.76-1.13,16.16-8.71,16.48-19.54.8-26.82-19.37-46.28-52.41-46.33-7.91.15-19.72,1.83-30.06,9.4-24.62,18-33.31,48.35-21.74,76.54,1.29,3.13,2.8,6.26,6.71,6.48,7.63.44,16.28-11.9,13.26-18.85-3.75-8.6-5.23-17.4-2.61-26.57C413.73,793.55,424.79,785.41,438.12,785.81Zm-34.57,22c-2.14,8.75-.42,16.92,2.72,25,1.22,3.13,2.63,6.1-.68,9-3.9,3.41-6.85,4.69-8.7-1.88-1.95-6.95-3.34-13.93-3.18-20.22-.17-21.15,13.66-42.42,32-50.18,20.21-8.56,41.52-5.26,55.29,8.75,8.3,8.46,10.85,19,9.59,30.41-.69,6.33-4.41,10.63-11.39,11-6.59.3-10.1-3.5-12.1-9.22-.54-1.56-1-3.15-1.45-4.74-5.39-19.59-13.46-26.48-30.52-26C420.51,780,407.44,791.84,403.55,807.79Z"/><path class="cls-1" d="M179.49,440c-2.35-.78-4.78-1.32-7.2-1.9-10.81-2.57-18,.83-22.18,10.43-3.46,8,0,17.67,8.49,22.65,7.44,4.35,15.32,7.7,23.56,7.15,11.59,0,23.64-4.52,31.31-12.6,17.39-18.31,23.41-39.49,14.78-63.91-8.83-25-28.5-36.06-52.89-40.91-4.06-.8-7,1-8.09,5.19-2.51,9.81,2.94,17.67,12.82,19.17,13.83,2.08,24.28,8.7,28.77,22.72,3.11,9.71,1.51,18.52-5.28,26.23S188.75,443.11,179.49,440Zm31.4-5.67c7.66-11.32,7-27.75-1.61-38.81C202,386.1,192.19,381,180.54,379.17c-2.34-.37-5.3.44-6.27-2.74-.8-2.62-1.78-5.68-.29-8,1.64-2.57,4.48-.85,6.81-.3,27.39,6.51,46,29,45.9,55.31-.1,22.92-17.09,44.43-38.61,48.59-10.36,2-19.69-1.19-28.08-7-5.11-3.53-6.54-9-4.4-14.74,2.22-5.95,7.15-8.13,13.35-7.12a53.41,53.41,0,0,1,7.2,1.81C191.8,449.76,202.7,446.44,210.89,434.35Z"/><path class="cls-1" d="M511.63,773.07l-.1.08h.06A.25.25,0,0,0,511.63,773.07Z"/><path class="cls-1" d="M510.45,775.09c-9.15,4.19-9.81,10.15-6.55,19.42,5.37,15.26-1.15,30.1-14.48,37.61-14.85,8.37-32.57.13-35.53-16.51a89.85,89.85,0,0,0-1.83-9.71c-2.81-9.39-9.51-13.77-19.37-13-7.6.61-14.72,7.49-15.63,15.73-1.69,15.39,1.8,28.93,14.37,39.27,17.3,14.24,36.87,15.72,56.79,8.38,30-11,44.44-42.38,36-74.36-1.88-7.14-5.16-10.6-12.66-8.8C511.23,773.83,511,774.83,510.45,775.09Zm5.49,4.56c3.07.17,2.86,3.78,3.22,6,.8,4.88,1,9.86,1.5,14.8.09,21.33-13.58,42.93-33.16,50.1-18.5,6.77-42.65,5.52-57.14-11.72-7.15-8.52-8.83-18.28-7.58-28.68.79-6.63,4.5-11.12,12.06-11.14s11.13,3.8,12.2,10.81c.25,1.64.61,3.25.92,4.88,3.13,16.3,9.61,23.35,23.7,25.8,13.47,2.34,27.38-4.38,34.42-16.46,6.28-10.75,6.6-22,3-33.55-.65-2.07-2.14-4.21-.61-6.27C510.28,781.75,512.91,779.47,515.94,779.65Z"/><path class="cls-1" d="M637.6,374.22c8-8.38,9.2-18.12,3-26-5.6-7.18-16.15-8.53-25.53-2.89-13.7,8.22-21.5,20.11-22.22,36.41-1.41,32,25.88,58.5,57.33,58.55,24.48.62,39.57-10.77,52.76-25.69,2-2.27,3.64-5,1.89-8.28-3.67-6.9-18.31-8.38-22.91-2.22-5.61,7.5-12.39,13.26-21.73,15.52-19.22,4.64-36.36-9-34.9-27.5C626,383.62,632.56,379.5,637.6,374.22Zm.48,48.93a49.56,49.56,0,0,0,15.57,3.52c13.34-.55,23.55-7.4,31.91-17.65,1.51-1.85,2.43-4.71,5.66-3.68,2.58.82,5.89,1.13,7.1,3.71,1.31,2.79-1.83,4.26-3.4,5.94-14.79,15.95-32.64,22-54.42,18.46-27-4.38-46.92-36.73-41.25-57.94,3.41-12.78,11-21.27,22.43-26.84,5.73-2.79,10.87-1.28,14.69,3.65s3.81,10.2-.41,15.06a52,52,0,0,1-6.35,6.5C609.4,390.26,621.47,416.46,638.08,423.15Z"/><path class="cls-1" d="M394.79,211.52c-15.82,1.79-30.75,6.28-43.9,15.59-35.07,24.82-44.61,62.57-51.23,101.71-.87,5.13,2.21,8.73,7,9.69a255.46,255.46,0,0,0,26.1,3.9c8,.74,9.49-1.94,5.6-9.18-4.92-9.14-8-18.72-7.64-29.82-.16-9.16,1.82-18.59,5-27.74,8.76-25.46,33.33-43.93,59.5-44.57,7.93-.2,8.67-5.11,8.83-11.08C404.22,213.56,400.87,210.84,394.79,211.52Zm-.15,13.25c-41.79,6.51-65.75,31.91-69.83,74.16a54.7,54.7,0,0,0,5.46,30.58c3.07,6,1.3,7.41-3.55,6.38-23.58-3.17-23.83-.5-18.37-23.68,5-21.23,11.17-42.23,24.61-60.09,13.71-18.22,31.91-29.34,54.24-33.72a52.31,52.31,0,0,1,7.42-.63c2.08-.1,3.94.3,4,3S397.35,224.35,394.64,224.77Z"/><path class="cls-1" d="M233.66,770.13c22.52-1.76,45.94-6.26,68.3-15.55,6.34-2.64,9-6.87,6-13.77-3-7.09-5.75-14.32-8.61-21.48-1-2.57-1.93-5.42-5.11-6-3.48-.59-4.68,2.37-6.06,4.67-7,11.76-17,19.84-29.58,25.35C225.3,758,191,748.61,170.26,718.63a7.07,7.07,0,0,0-7.76-3.26c-10.24,1.66-12.82,7.84-6.51,16.37C174.89,757.29,200.77,769.06,233.66,770.13Zm-73.22-47.68c3.11-2.08,4.72-.31,6.55,2.36,17.69,25.92,52,37.24,83.34,27.82,17.73-5.34,32.51-14.73,43.27-32,2,4.92,3.26,8,4.51,11,7.17,17.55,8.41,16-9.95,21.93-25,8.05-50.6,14.17-77.18,8.08a82.92,82.92,0,0,1-50-33C159.65,726.8,157.09,724.7,160.44,722.45Z"/><path class="cls-1" d="M710.67,684.64c4.94,3.35,8.83,2.28,11.43-3.09a94.23,94.23,0,0,0,9.63-42.12c.14-4.94-.85-12.06-2.59-19-8.81-35.21-33.42-58.78-60.06-80.73-4.14-3.42-8.91-2.88-12.51,1.44-5.64,6.78-11.3,13.57-16.52,20.67-3.93,5.35-2.16,8.74,4.87,8.84,22.18.31,38.67,11.2,52.44,27.4,17.18,20.23,20.59,50.42,8.12,74C701.93,678.72,706.21,681.61,710.67,684.64Zm2.25-13.31c10.8-19.13,6.68-54.54-8.44-73.75-14.79-18.77-33-31.57-59.3-32.91,3.54-4.6,5.81-7.69,8.22-10.66,10.11-12.41,10.44-12.74,21.88-2,17.57,16.42,34.73,33.37,43.88,56.34,8.76,22,8.91,44.12-.21,66.08-1,2.31-1.07,6.94-5.76,4.86C708.1,677,711.34,674.13,712.92,671.33Z"/><path class="cls-1" d="M419.13,528.56c4.87-7.67,8.79-16,15.16-22.64,13.27-13.92,32.64-15,46.44-1.64,5.45,5.29,8.7,5.45,12.81-.58a40.23,40.23,0,0,1,4.53-4.81c2.68-2.79,2.27-5.17-.56-7.71-16.3-14.65-34.59-24.54-52.37-24.38-24.16,0-43.45,8.42-56.3,22.74-6.79,7.56-11.48,16.14-11.69,26.69-.26,12.34,4.18,20,13.54,22.91C402.61,542.85,412.38,539.22,419.13,528.56Zm-36-14.66c3.91-20.36,26.83-39.17,49.76-40.77,2.75-.19,5.52,0,8.28,0,18.62-.36,34.21,7.15,48.15,18.85,2.07,1.74,3.76,3.36,1.48,6.13-2.12,2.58-4.44,3.12-7.06.82a37.8,37.8,0,0,0-20.09-9c-17.31-2.42-30,5-39.28,19-3.66,5.52-6.83,11.35-10.33,17-5,8-13.48,10.77-22.19,7.3C384.79,530.34,381.41,522.89,383.14,513.9Z"/><path class="cls-1" d="M360,498.78a35,35,0,0,1-7.24-1.6c-5.15-2-6.94.41-7.84,5-3.35,17.05-3.63,33.77,2.82,50.38,9.73,25.09,35.59,44.65,60.25,44.86a40.12,40.12,0,0,0,19.88-4.68c10.11-5.36,14.32-13.72,12-23.77-2.6-11.12-10.44-17.73-21.56-18.23-6.6-.29-13.22-.44-19.8-1-25.71-2-38.1-18-33.14-43.18C366.33,501.42,364.6,499.52,360,498.78Zm37.72,56.94c6.33.36,12.69.13,19,.36,9.81.36,16.41,6.44,17.88,16.26,1,6.69-3.78,13.7-12.23,16.6-18,6.18-33.93.35-48.07-10.33-18.19-13.75-26-32.92-25.74-57.39.37-3.4.87-8.6,1.52-13.79.33-2.62,1.07-4.91,4.68-4,3.15.78,4.89,2.15,4,5.76-2.12,8.13-.42,15.86,2.85,23.34C368.45,548.24,381.34,554.78,397.68,555.72Z"/><path class="cls-1" d="M437.14,626.75a104.46,104.46,0,0,0,12.77-5.84c24.34-14,37.32-35.11,38.75-62.24-1-18.41-4.69-34.5-19.88-45.41-9.87-7.08-19.29-7-27.28-.09-8.47,7.34-10.89,18.42-5.92,28.38,3.07,6.16,6.88,12,9.76,18.21,10.51,22.81,2.63,41.65-21,49.85-5.27,1.82-6,3.81-4.26,8.92C424.61,631.84,424.35,632,437.14,626.75Zm-9-12.28c3.53-1.5,7.23-2.87,10.35-5,16.87-11.72,21.85-31.2,12.86-50.49-2.9-6.23-6.57-12.1-9.79-18.18-4.83-9.12-3.23-18,4.19-23.67,5.93-4.57,14.82-3.62,22,2.6,11.56,10.08,14.59,23.5,14.54,38,0,29.64-21.18,56.74-50.69,65.08-2.73.77-4,.66-4.83-2.2C426.11,618.24,424.65,616,428.16,614.47Z"/><path class="cls-1" d="M428.16,261.12c2.17-8-2.93-15.8-13.4-20.06a40.87,40.87,0,0,0-10.32-2.84c-34.1-4.17-66.88,24.83-66.85,60.57a56.91,56.91,0,0,0,.41,6.71A67.73,67.73,0,0,0,340.29,316c1,3.22,0,8.57,6.43,7.26,10.63-2.16,15.32-6.08,13.88-12.45A59.12,59.12,0,0,1,359,296.06c.48-19.21,15.82-30,33.8-23.9a69,69,0,0,0,11.91,3.34C414.76,277,425.7,270.11,428.16,261.12Zm-5.88-1.95c-.89,5.68-5,8.41-10,9.77-6.74,1.85-13-.79-19.36-2.64C378.1,262,368.15,265,359.33,276.6c-5.78,7.63-7,16.6-6.17,25.89a49.41,49.41,0,0,0,1.09,6.51c.88,3.86-1.19,5.6-4.47,6.57-4.51,1.34-4.22-2.59-4.87-4.82-5.63-19.16,2.15-41.54,18.85-54.5a55.63,55.63,0,0,1,35.78-12.2A32.25,32.25,0,0,1,415,247.52C419.74,249.87,423.19,253.27,422.28,259.17Z"/><path class="cls-1" d="M217.74,613.59c-13-3.24-13.45-2.64-14.43,10.24-.45,5.87,1.14,8.7,7,9.55a43.37,43.37,0,0,1,8.66,2.7c18.06,6.77,26.45,28.73,9.24,42.52A32.8,32.8,0,0,0,217.42,694c-2.62,8,.26,17.31,6.53,21.43,7.5,4.92,14.21,2.49,20.5-2.45C258,702.39,262,687.58,262.82,673.72,263,642.89,245.44,620.47,217.74,613.59Zm24.43,93.78c-4.66,4.08-10,6.9-15.63,2.56-5.25-4.06-5.15-10-3-15.85a23.91,23.91,0,0,1,7.86-10.51c20.19-15.33,13.95-43.3-10.79-53.19a40.43,40.43,0,0,0-6.26-2.11c-3.95-.86-5.82-2.9-4.63-7,1.4-4.86,5-2.35,7.46-1.76,24,5.63,39.6,26.06,39.52,56.06C256.47,684.93,253.2,697.72,242.17,707.37Z"/><path class="cls-1" d="M641.15,642.37a72.54,72.54,0,0,0,12.17,2.31c10.14.85,20.32-6.23,22.09-15,1.65-8.15-3.83-15.38-14.47-19.19-5.24-1.88-10.57-3.36-16.18-2.78-39.33,4-68.24,40.62-52.89,81,1.31,3.43,1.65,8,7.59,6.19,9.87-2.92,13.61-6.71,12.09-13-1.17-4.83-2.63-9.6-2.33-14C609,647.32,621.94,637.33,641.15,642.37Zm-37.69,30.34c.56,3,1.24,5.92,2,8.83,1.2,4.39-2.19,5.13-4.91,6.16-3.29,1.25-3.61-1.71-4.16-3.63-1.65-5.84-2.83-11.78-2.48-17-.08-31,28.2-56.35,58-53a27.56,27.56,0,0,1,3.25.55c10.14,2.32,15.22,7.46,14.07,14.2-1.21,7-9.65,11.35-19.31,9.73a44.49,44.49,0,0,1-7.18-1.84C615.58,627.47,599.7,652.7,603.46,672.71Z"/><path class="cls-1" d="M665.34,686.33c6.92,4.25,13.67,2.88,20-1.74,15.21-11.09,19.88-27,20.42-39.74.05-31.71-15.13-53.45-39.69-61.87-15.78-5.41-16.06-5.12-17.52,11.42-.33,3.73.32,5.63,4.1,6.57a69.38,69.38,0,0,1,10.09,3.62c19.66,8.28,26.25,32,6.57,45.8a27.36,27.36,0,0,0-10.6,15.33C656.52,673.42,659.19,682.56,665.34,686.33Zm1.48-24.68c1.68-2.49,3.54-5.2,6-6.78,24.26-15.73,16.35-47.75-11.9-57.47-2.68-.92-7.08-.42-6-5.89.78-3.87,1.29-5.66,6.19-4.2,23.91,7.14,39.31,27.39,39.19,54.88-.89,11.91-4,25.44-15.61,35.37-5,4.24-10.4,7.94-17,3C662.75,676.87,662.36,668.26,666.82,661.65Z"/><path class="cls-1" d="M400.05,292.7c-4.16-11.1-16-17.78-25.46-14.56s-12.87,13.44-8.88,25.92a35.35,35.35,0,0,0,2.81,6.85c11.74,20.61,29.63,31,44.75,31.69,26.42.21,38.12-5.05,52.12-19.53,8-8.31,7.82-8.25-1.39-15.19-5.57-4.2-9.76-5-14.43,1.24-3.46,4.67-8.57,7.72-13.95,10-14.17,6.13-28.2-.53-32.42-15.35C402.14,300.11,401.4,296.29,400.05,292.7Zm51.19,23a35,35,0,0,0,3-2.88c3.2-3.68,5.4-.41,7.64,1.19,3,2.14.5,3.83-.88,5.32-10.39,11.13-22.72,18.16-41.29,17.87-16.83-.75-32.67-8.72-43.93-25.16a30.82,30.82,0,0,1-5.36-17.08c-.1-4.67.67-8.8,5.53-11,4.65-2.07,8.65-.39,12.34,2.23,5.07,3.61,6.61,9.34,8.27,14.88C405,329.39,429.2,335.87,451.24,315.68Z"/><path class="cls-1" d="M257.2,710.22a51,51,0,0,1-7.64,6.27c-18.41,13.53-40.58,3.84-42-16.82-.55-8.14-4.13-15.46-11.3-20.26-5.6-3.75-11.63-5.26-17.93-1.95s-8.81,8.81-8.42,15.77a34.84,34.84,0,0,0,3,15.24c15.73,36.53,65.87,47.36,95.1,20.52,11.36-10.43,11.18-10.69-1.13-19.68C262.83,706.32,260.36,706.74,257.2,710.22Zm9.3,6c3.07,2.65,1.83,4.65-.44,6.77-10.22,9.55-21.89,15.68-36.25,15.51-26.25-.16-50.28-18.59-53.84-41.4-.94-6-.81-12.22,5.82-14.74s11.81,1,15.73,6.19c3.41,4.54,4.4,10.16,5.22,15.54,3.51,22.91,27.8,29.49,44.72,20.33a65.48,65.48,0,0,0,12.09-8.56C262.4,713.38,264.11,714.2,266.5,716.26Z"/><path class="cls-1" d="M160.41,652c-15.59,12.2-22.42,34.9-17.07,53,.75,2.54,1.23,4.59,4.67,4.51,10-.24,14-4.22,13.8-14.21,0-1.66.06-3.32,0-5-.52-15.71,15.35-32.07,33.44-20.17A29.59,29.59,0,0,0,206,674.24c9.41,1.82,19.36-3,21.87-10.7,2.39-7.35-1.89-15.74-11-19.94C196.33,634.13,177.44,638.71,160.41,652Zm54.1-2.86c5,2.78,10,6,7.25,12.84-2.62,6.44-8.53,7.48-14.6,6.39a28,28,0,0,1-10-3.8c-18.7-12-39.72,2-41.49,24.58-.18,2.2,0,4.42-.07,6.62-.06,2.67.68,5.78-3.45,6.25-4.46.51-3.68-3.17-4.34-5.53a18.89,18.89,0,0,1-.42-4C147.68,657.78,186.25,633.38,214.51,649.18Z"/><path class="cls-1" d="M443.64,224.7h.06s0,0,0,0l-.09-.06A.41.41,0,0,1,443.64,224.7Z"/><path class="cls-1" d="M440.29,223a6.81,6.81,0,0,1-5-3.3c-1-.15-1.67-.57-1.68-1.66-4.26,0-7.79-2.37-11.6-3.77-2.68-1-4.56-1.2-6.13,1.77-4.81,9.12-3.36,14.12,5.55,19.06a45.23,45.23,0,0,1,8.12,5.63c12.72,11.35,11.79,25.49-2.15,35.19-2.71,1.89-5.48,3.73-8,5.86-7.71,6.56-9.76,18.11-4.63,25.28,5,7,14.12,7.54,23.65,1.49,18.86-12,27-40.68,18.42-62.56-3.16-8.06-9.23-14-13.26-21.33A2.93,2.93,0,0,1,440.29,223Zm14.3,41.55c-.65,14.41-4.66,27-15.49,36.57a26.27,26.27,0,0,1-9.29,5.22c-3.82,1.28-7.2.75-9.82-2.19a9.66,9.66,0,0,1-1.91-10c1.86-5.58,5.77-9.31,10.69-12.09,24.13-13.6,17.67-39.92-2.95-51.18a28.09,28.09,0,0,0-3-1.47c-2.87-1.18-4.69-2.54-2.83-6.15,1.77-3.43,4.05-2.14,6.21-1.15,14.42,6.6,24.09,17.16,27.12,33.09C454,258.45,454.23,261.76,454.59,264.59Z"/><path class="cls-1" d="M435.27,219.66h0l.06.08h.06s0-.06,0-.1Z"/><path class="cls-1" d="M440.24,223h0s0,0,.05.07l.08,0,0-.09Z"/><path class="cls-1" d="M708.72,703.5c1.55-7.67-4.44-11.38-8.91-15.31s-7.09,2-10.53,3.57c-3,1.36-5.81,3.24-8.89,4.34-16.2,5.72-28.74-2.77-29.79-19.86A59.6,59.6,0,0,0,648.79,664c-2.47-8.88-10.9-14.63-19.23-13.61-8,1-12.24,7-12.35,17.67-.2,18.14,13.1,37,31.19,44.86,18.25,7.93,35.41,5.08,52.05-4.49C702.61,705.8,704.83,703.25,708.72,703.5Zm-10-1.5a45.23,45.23,0,0,1-28.26,9.91c-21.68-.12-41.23-14.81-46.67-35.15a30.31,30.31,0,0,1-1-6.48c-.27-6.32.16-12.59,7.88-14.3,5.47-1.21,12,4.95,13.36,12.25.66,3.51,1.42,7.12,1.22,10.63-1,18.4,20.8,30.61,39.25,21.92a70.66,70.66,0,0,0,10.06-5.62c3.09-2.13,4.54-.06,6.13,1.79C703,699.68,700.38,700.69,698.73,702Z"/><path class="cls-1" d="M700.45,708.46l-.06.08h.06a1.17,1.17,0,0,1,0-.11Z"/><path class="cls-1" d="M708.81,703.5h-.09a.28.28,0,0,1,0,.09Z"/><path class="cls-1" d="M686.36,440.51c-2.71,1.23-6.16,2.39-5.51,6.24s4.34,3.67,7.21,4.37a13.5,13.5,0,0,0,2.47.19l63.65,2.84c7.76.56,10.73-2.61,8.18-9.64-6.46-17.89-13.35-35.63-20.21-53.37-1.23-3.16-3.4-5.95-7.35-5.63-3.7.3-4.74,3.51-5.67,6.37a96,96,0,0,1-10,21.75C711.23,426.26,699.69,434.45,686.36,440.51Zm49.32-50.23c7.53,19.67,14.41,36.83,20.6,54.25,1.93,5.43-3.41,3.74-5.76,3.64-18.93-.8-37.85-1.85-56.77-2.83C715.16,433.41,728,415.34,735.68,390.28Z"/><path class="cls-1" d="M395.86,875.74C384.69,861.8,377.29,846.49,379,828c0-3.58,0-7.15,0-10.73,0-2.48.19-5.2-2.81-6.22-2.78-1-4.86.49-6.3,2.72-12.66,19.67-25.39,39.29-37.82,59.11-3,4.82-1,8.56,4.53,9.85,4,.94,8.12,1.38,12.19,2q22,3.54,44,7.06c3.39.53,6.94.43,8.94-2.72,2.13-3.37,0-6.29-2.17-8.93C398.32,878.71,397.06,877.24,395.86,875.74Zm-54.4,2c-4.47-.68-4.07-2.57-2.2-5.47C349.65,856,360,839.8,371.85,821.34c.75,13.37,1.32,24.35,5.43,34.76,4.2,10.63,11,19.5,19.39,30.51C376.7,883.37,359.1,880.41,341.46,877.7Z"/><path class="cls-1" d="M145.7,349.64c22.27-4.93,42.56-.7,60.85,13a12.57,12.57,0,0,0,4.21,2.47c3.76.93,5.77-.74,5.74-5.2-1-2.37-2-5.24-3.42-7.91q-14-27.12-28.23-54.17c-4.48-8.5-7.68-9-13.9-1.57-11.28,13.51-22.23,27.3-33.22,41.05-2.54,3.19-5.82,6.74-2.73,11C137.75,352.16,142,350.46,145.7,349.64Zm61,4.29h0l.59.91ZM168,309c10-12.33,10.15-12.38,17.35,2.16,7.07,14.28,15.63,27.82,21.36,42.77-2.48.69-4.21-1-6-2.1-16.75-9.95-34.76-11.51-53.53-8.23a31.23,31.23,0,0,1-4.11.37,13.24,13.24,0,0,1-2.55-.77C149.79,331.56,158.84,320.23,168,309Z"/><path class="cls-1" d="M353,735.61c5-1.93,5.5-4.5,3.71-8.81-2.63-6.35-5.07-12.77-7.62-19.15-5.72-14.28-11.64-28.49-17.12-42.87-2.8-7.34-9.25-7.57-14.94-7.51-5.24.05-4.33,6.05-6.05,9.68.79,2.09,1.5,4.16,2.32,6.18q11.13,27.51,22.27,55C340.6,740.69,340.47,740.45,353,735.61Zm-33.27-71.89c4.81.18,6.22,2.42,7.3,5.11q11.26,27.87,22.59,55.71c1.08,2.64,2.32,5.19-1.57,6.71-3.24,1.26-5.07.21-6.34-3-7.71-19.39-15.55-38.72-23.28-58.09C317.23,667.25,316.68,664.3,319.71,663.72Z"/><path class="cls-1" d="M292.53,372.05a75.69,75.69,0,0,1-1.82,8.89c-1.5,5,.25,7,5.35,7.62,22.41,2.84,44.79,6,67.19,9,4.52.61,13.83-5.1,13.77-9.19-.09-5.93-4-9.44-9.85-10.29-22.89-3.37-45.81-6.62-69.47-10C295.11,367.39,293.14,368.59,292.53,372.05Zm4.51,6.5c.74-3.14,1.84-4.62,5.59-4.06,20.11,3,40.26,5.72,60.38,8.67,2.73.4,7.3-.14,6.84,4-.43,4-4.22,5.34-8.81,4.43-19.6-2.75-39.73-5.55-59.86-8.45C298.74,382.83,296.16,382.3,297,378.55Z"/><path class="cls-1" d="M634,510.59a80.22,80.22,0,0,1-7-5.74c-2.58-2.36-4.74-2.28-6.91.51q-21.78,28-43.6,56c-3.64,4.67,0,8.85,1,13.19.67,3.12,3.07,3.53,6.54,3,3.53.56,6.56-1.41,9.12-4.71q20.73-26.75,41.62-53.36C637.5,516.05,637.84,513.36,634,510.59ZM626.88,520q-18.51,23.87-37.08,47.68c-1.66,2.12-3.6,5.09-6.62,2.89s-2.4-5.39-.29-8.1q19-24.5,38.19-48.91c1.14-1.45,2.41-3.37,4.75-2,1.67.94,3.28,2.07,3.59,4.75C628.71,517.33,627.88,518.74,626.88,520Z"/><path class="cls-1" d="M503.91,250.34c-.18,3-.38,6-.54,9.07-.18,3.26-1,7.1,3.34,8.2,3.82,1,5-2.59,6.6-5.06,8.61-13.43,17.23-26.86,25.73-40.37,4.79-7.61,3.5-11.52-5.1-14.06-11.33-3.36-22.82-6.18-34.23-9.27-3.35-.91-6.72-1.4-9,1.88s-.18,6.14,1.58,9C499.87,222.22,505.23,235.33,503.91,250.34Zm27.76-37c4.29,1.18,3.76,3.9,1.79,6.95-7.41,11.51-14.75,23.05-22.12,34.59.45-18.25-5.4-34.24-15.69-51.09C509.08,207.34,520.4,210.25,531.67,213.34Z"/><path class="cls-1" d="M147.23,605.92c-.3-3.94-3.38-3.74-6.12-3.89-15.4-.84-30.8-1.64-49.54-2.63-7.84-.29-11.89,2.41-10.1,10.07,2.94,12.59,6.66,25,10.13,37.46.78,2.82,2.47,4.9,5.64,5.33,3.42.47,5-1.72,6.23-4.33,8.38-17,21-29.51,39.05-36C145.26,610.9,147.49,609.29,147.23,605.92Zm-49.81,41c-3.62-13.33-6.51-24.17-9.53-35-1.33-4.74.19-6.41,5.14-6.33,13.62.23,27.25.08,41.29,1.64C117.88,616.28,106.49,629.18,97.42,646.87Z"/><path class="cls-1" d="M677.24,765.78c-18.59,1.45-35.4-3.25-50-15.1-2.52-2-5.37-3.82-8.19-1.79-3.64,2.61-1.28,6,.18,8.85q11.13,21.64,22.47,43.16c4,7.53,7.92,8.32,14.17,2.39,8.78-8.33,17.17-17.07,25.75-25.61a9.56,9.56,0,0,0,3.27-6.49C684.13,766.89,681.54,765.44,677.24,765.78Zm-49.81-6h0L627,759Zm24.85,39c-3,2.86-4.9.48-6.27-2.23q-9.22-18.31-18.41-36.64c3.09-.72,5.06,1.63,7.27,2.94,12.91,7.61,27.15,9.36,42.72,10.78C669.17,782,660.85,790.52,652.28,798.77Z"/><path class="cls-1" d="M329.54,420.73c13.52,3.73,20.66-3.59,28-12,3-3.37,2.64-6-2.37-6.74q-30.18-4.25-60.37-8.42c-2.14-.29-4.43-.76-6.12,1.27-5.67,6.77-1.88,18.27,6.67,20.23,1.51.35,3.32-.06,4.14,1.78C309.81,416,320,418.1,329.54,420.73Zm-36.86-18c1-6.12,4.89-2.85,7.47-2.53,16.25,2,32.47,4.33,49.85,6.7-4.75,7.39-9.14,10.27-16.72,8.56-11.21-2.54-22.69-3.81-34-5.7C295.35,409.14,291.69,408.54,292.68,402.76Z"/><path class="cls-1" d="M592.8,494.79c1,3.32-1.77,4.88-3.37,6.86-4.63,5.75-8.81,12.1-14.32,16.86-11.12,9.6-8,20.28-4.11,31.49,1.67,4.81,4,4.89,6.88,1.26,12.71-16.23,25.28-32.58,38-48.8,2.33-3,2-5.11-.6-7.8-7.34-7.46-10.3-7.82-20.82-1.58C594.46,494.21,594,494.9,592.8,494.79ZM608,496.12c3.28,2.85,1.42,5.31-.53,7.79L576.2,543.77c-5-8.47-3.19-14.15,2.1-19.95,7.57-8.3,14.49-17.2,21.58-25.93C602.23,495,604.48,493.05,608,496.12Z"/><path class="cls-1" d="M594.46,493.08V493l-.1.1h0Z"/><path class="cls-1" d="M372.77,728.55c6.68-2.83,10.17-6.11,7.31-13.66-4.08-10.78-8.89-21.42-11.68-32.55-3.43-13.67-13.3-16.9-25-18.48-6.17-1.08-5.44,2.4-3.9,6.24,7.07,17.59,14.4,35.08,21.16,52.78C363.07,729.33,365.85,731.48,372.77,728.55Zm-25-56.78h0c7.81-.59,12,3.07,14.34,10.53,3.58,11.26,8,22.28,12.32,33.27,1.39,3.51,1.23,5.62-2.47,7.15-3.3,1.36-5.19.38-6.34-2.86-5.72-16-13.71-31.19-18.27-47.67Z"/><path class="cls-1" d="M645.59,520.64c-2.93-2.67-5-.2-6.79,2q-17.61,22.47-35.16,45c-1.16,1.49-2.72,3-1.33,5.12,1.07,1.68,2.8,1.48,4.46,1.41,10.88.15,19-3.47,26-11.66,5.94-6.9,11.85-13.83,17.87-20.66a16.23,16.23,0,0,0,4.27-7.9C656.21,526.54,649.65,524.36,645.59,520.64Zm3.34,13c-.71,6.65-28.32,32.79-35.21,33.22-.18,0-.38-.31-1.21-1q14.13-18.07,28.32-36.23c1.33-1.71,2.75-2.72,4.85-1.23C647.5,529.61,649.21,530.9,648.93,533.59Z"/><path class="cls-1" d="M295,359.21c-.57,2.67,2.09,3.75,4.29,4.07q29.37,4.26,58.78,8.28c2.9.39,5.74-1.54,3.81-4.29-4.06-5.79-7.42-13.69-14-15.8-13.27-4.28-27.25-6.35-40.7-9.27-2.54.83-4.79,1.19-6.64,2.25C294.74,347.77,296,354.05,295,359.21Zm6.58-4.76c.32-2.51.88-5.56,4-5.33a163.14,163.14,0,0,1,40.9,8.24c1.92.66,3.92,3,3.76,6.59-11,.18-21.55-3.15-32.35-4-4.1-.31-8.17-1-12.25-1.52C303.25,358.14,301.14,357.47,301.53,354.45Z"/><path class="cls-1" d="M330.13,743.69c7.43-3.31,2.68-7.67,1.45-11.52-1.57-5-3.79-9.71-5.76-14.54-4.67-11.44-9.29-22.9-14.07-34.29-1.14-2.7-3.35-6.93-6.08-2.3-3.43,5.81-5.1,12.66-7.33,18.54.25,1.18.31,1.73.48,2.24,2.29,7,4.52,14.13,6.94,21.13,2.07,6,3.89,12.08,6.7,17.69C315.9,747.53,320.94,747.8,330.13,743.69ZM304.92,702.1c-1.24-3.9.93-7.38,3.62-11.55,5.88,14.53,11.41,28,16.74,41.55,1,2.57,3.1,5.85-1.33,7.62-4.06,1.62-6.34-.53-7.58-4.05C312.46,724.51,308.51,713.36,304.92,702.1Z"/><path class="cls-2" d="M1212.45,642.23c-13.71-10.13-28.35-19-42.59-28.41-16.4-10.85-30.49-23.7-37.78-42.66-8.91-23.21,2.64-47.5,26.25-54.92,11.87-3.73,24-4,36.23-2.55,15.75,1.9,28.8,8.41,36,23.54,2,4.21,3,8.89,5,13.1.85,1.82,3,3,4.64,4.46,1.26-1.79,3.59-3.58,3.59-5.37,0-12.76-.48-25.52-.77-38.28-.09-4.24-1.8-6.42-6.38-6.7-3.3-.21-6.52-1.64-9.79-2.44-30.24-7.35-60.13-8.43-89.19,5.09-27,12.56-41.6,39.94-36.95,69.29,4.36,27.51,19.51,48.64,40.74,65.27,16.37,12.82,34.23,23.7,51.16,35.81,12.11,8.67,22,19.38,26.42,34.09,8,26.8,2.76,47.48-19.41,61.07-17.63,10.8-37,12.8-57,8.26-18-4.1-31-14.73-38-32-2.53-6.22-3.8-12.94-6.06-19.28-.68-1.9-2.75-3.31-4.19-4.94-1.29,2-3.53,3.94-3.7,6-.5,6.16-.17,12.38-.17,18.58l-.62,0q.81,13.47,1.61,26.95c.27,4.64,2.56,7.55,7,9.16,32.24,11.78,65.18,14.61,98.45,6,36.79-9.52,57.78-38.56,56.81-76.54C1252.81,683.34,1236.8,660.21,1212.45,642.23Z"/><path class="cls-2" d="M1095.9,364.76c.61,3.58,2.25,6.14,6.29,5.62,3.64-.46,4.47-3,4.73-6.45,1.41-19.25,3.16-38.49,4.6-57.74.14-1.83-1.07-3.76-1.65-5.64-1.89.84-4.68,1.16-5.54,2.61-4,6.87-10.14,9-17.53,9.14-4.69.06-9.38.33-14.07.33q-80.51,0-161,0c-5.43,0-10.87-.37-16.29-.76-6.45-.47-11.29-3.28-14.28-9.39a7.27,7.27,0,0,0-5.39-3.38c-1.2,0-3.14,2.78-3.58,4.59-4.51,18.59-8.74,37.24-13.14,55.85-.83,3.5-.85,6.37,3.24,7.65,3.86,1.22,5.87-.56,7.35-4,1.91-4.47,4.14-8.82,6.42-13.12,6.91-13,17.41-21.24,32.36-22.14,16.27-1,32.6-1.33,48.91-1.61,9.63-.17,11.11,1.42,11.11,11.09q0,104.49-.17,209a174.76,174.76,0,0,1-2.36,26.3c-1.22,7.84-6.49,12.57-14.36,13.83-5.91.94-11.9,1.5-17.87,2-4.16.35-6.14,2.3-5.88,6.51s2.83,4.64,6.24,4.63q49.25-.11,98.48,0c4,0,6-1.4,6.13-5.45.17-3.83-1.67-5.39-5.3-5.72-5.41-.5-10.85-.94-16.18-2-8.83-1.69-13.41-6.53-14.47-15.58a208.18,208.18,0,0,1-1.53-23c-.16-33.42-.07-66.84-.07-100.26h0q0-55.49,0-111c0-9.07,1.27-10.33,10.47-10.44s18.41-.45,27.58.07a262.52,262.52,0,0,1,31.82,3.3c12.53,2.27,21,9.54,22.78,23C1094.28,356.67,1095.21,360.7,1095.9,364.76Z"/><path class="cls-2" d="M1430.1,457.17l-.42-1.66a40.11,40.11,0,0,0-5.71.48c-21.35,4.82-37.18-5.32-51.54-19.16a7.9,7.9,0,0,1-1.83-5.61,49.2,49.2,0,0,1,2.09-11c1.63-5.18,5.27-7.89,11-7.84,13.7.12,27.4-.05,41.1.12,2.1,0,5.42.6,6.07,1.94A118,118,0,0,1,1439,435c.51,1.88-3,5-5,7.34a38,38,0,0,1-4.74,4.09c.19.52.38,1,.58,1.55,1.61-.13,3.42.17,4.82-.45q17.49-7.74,34.82-15.83c1.12-.52,1.78-2,2.65-3.09-1.42-.43-3.05-1.55-4.22-1.18-9,2.77-12.75,2.37-17.86-9.76-5.82-13.83-11.69-27.64-17.31-41.56-5.12-12.69-10-25.48-14.84-38.3-2.26-6-.85-8.27,5.37-9.52a14.59,14.59,0,0,0,3.31-.55,36.24,36.24,0,0,0,4.3-2.68c-1.65-.76-3.29-2.17-5-2.18-11.25-.09-22.51.13-33.77.23-1.5,0-3.07-.3-4.47.05-1.06.26-1.9,1.35-2.84,2.08a15.9,15.9,0,0,0,2.63,2.44,8.73,8.73,0,0,0,2.74.49c8.55,1.55,11.13,5.51,8.92,14a40.47,40.47,0,0,1-2.34,6.33c-7.68,16.91-15.2,33.89-23.19,50.65-4.1,8.59-8.94,16.84-13.71,25.09-1.36,2.33-3.69,5.25-6.72,2.17-12.44-12.71-24.71-25.58-37-38.47-2.31-2.43-1.17-4.05,1.49-5.69a60,60,0,0,0,10.32-7.71c15.12-14.65,8.42-42.65-11.71-48.59a61.73,61.73,0,0,0-16.07-2.32c-15.76-.3-31.52-.2-47.29,0-1.79,0-3.56,1.49-5.35,2.29,1.64.88,3.18,2.23,4.93,2.58,7.72,1.55,9.08,2.45,9.14,10.23q.32,41.39,0,82.79c0,8-2,9.59-9.8,11.06a66.71,66.71,0,0,0-7.14,2.27c6,3.42,45.28,2.84,48.51-.49-2.19-.7-4-1.47-5.86-1.86-7.45-1.57-9.52-3.68-9.74-11.39-.26-9-.26-18-.07-27,0-1.76,1-4.33,2.36-5.1,5-2.86,17.12.1,21.27,4.18,16.16,15.89,31.76,32.46,48.93,47.21,20.66,17.74,45.12,24.76,72.4,19.4A60.48,60.48,0,0,0,1430.1,457.17ZM1383.61,396q9.12-20.24,18.48-40.37a50.49,50.49,0,0,1,3.15-5,70,70,0,0,1,3.93,7.08q7.51,18.48,14.8,37.06c2.58,6.59,1.62,8-5.55,8-10.12.07-20.25.1-30.37-.08C1382.07,402.61,1381.22,401.25,1383.61,396Zm-86.29-13.37c-4.28.34-8.6,0-12.9.26-5,.27-7.17-1.72-7-6.89.28-6.73.07-13.48.07-20.22h0c0-7.12-.21-14.25.16-21.35.08-1.72,2-4.72,3.19-4.8,10.5-.67,21-1,30,6.26,7.67,6.22,10.51,17.7,7.09,29.37C1314.61,376.68,1308.77,381.69,1297.32,382.6Z"/><path class="cls-2" d="M1622.34,626.66c-10.49,2.17-12.54,1.51-16.8-8.65q-15.66-37.38-30.68-75c-4.89-12.31-4.51-12.43,8.05-16.42,1-.32,1.76-1.56,2.64-2.37-1-.68-1.89-2-2.83-2q-20,0-40,.3c-1,0-1.89,1.26-2.84,1.93a12,12,0,0,0,2.71,2.27c1.17.5,2.58.39,3.86.67,6.53,1.42,8.91,4.62,8,11.28a29.34,29.34,0,0,1-2.25,8.08c-10.12,22.19-20.26,44.37-30.7,66.41a56.75,56.75,0,0,1-8.27,12c-2.86,3.38-9.89,4-13.32.64-1.53-1.5-.68-5.51-.75-8.39,0-.89.8-1.85.66-2.69a26.53,26.53,0,0,0-1.4-4.35c-1.12.79-2.59,1.35-3.29,2.42-1.54,2.34-2.19,5.45-4.11,7.31-3.39,3.26-7.22,7.75-11.29,8.26a121.83,121.83,0,0,1-28.5,0c-7.72-.86-10.08-4.52-10.48-12.31-.32-6.37-.24-12.76-.24-19.15,0-19.53,0-39.06.15-58.59.09-9.07,1.75-10.65,10.46-12.15a21.85,21.85,0,0,0,4.55-1.85l-.36-1.64h-44.71c-.11.53-.23,1.07-.35,1.6a16.23,16.23,0,0,0,3.56,1.78c11.29,2.51,12,3.05,12.1,14.77.21,20.1.15,40.19.13,60.29q0,10.14-.4,20.27c-.2,5.19-2.79,8.33-8.2,9a59.52,59.52,0,0,0-7.13,1.8c0,.59,0,1.17,0,1.76,1.58.42,3.16,1.2,4.73,1.21q36.6.11,73.2,0c1.75,0,4.23-.31,5.11-1.45,2.37-3.09,4.79-2.2,7.47-1.06,10.18,4.32,20.34,8.72,30.58,12.89,1.33.55,3.13-.06,4.71-.14a37.56,37.56,0,0,0-2.45-4.34c-.51-.7-1.56-1-2.37-1.47-4.33-2.54-6.52-6.08-5.38-11.25.52-2.38.77-4.83,1.38-7.19,1.84-7.21,4-9,11.38-9,13.14-.09,26.28.18,39.42-.16,6-.15,9.66,2,11.52,7.6.59,1.77,1.47,3.45,2.17,5.19,4.29,10.65,4.06,11.28-4.87,18.24-1.06.83-1.36,2.63-2,4,1.5.06,3.23.64,4.47.1q17.22-7.65,34.25-15.71c1.33-.63,2.08-2.5,3.09-3.8C1625.27,627.19,1623.69,626.38,1622.34,626.66Zm-49.83-24.5c-10.13,0-20.26,0-30.39,0-4.48,0-5.85-2.17-4.06-6.11q9.74-21.53,19.72-43c.41-.89,1.49-1.47,2.82-2.72,1.16,2.21,2.22,3.89,3,5.7,5.09,12.3,10.09,24.64,15.15,37C1581.84,600.56,1580.82,602.15,1572.51,602.16Z"/><path class="cls-2" d="M1818.39,655.27c-12.7,2.85-24.52.47-35.89-5.53-26.26-13.84-48.44-32.63-67.37-55.37-2.7-3.25-5.19-6.68-8.16-10.52l6.08-3.57c13.28-7.83,19-20.37,15.69-34.17-3.41-14.06-13.72-22.38-29.62-22.79-17.81-.46-35.64-.26-53.46-.17-1.47,0-2.94,1.38-4.41,2.12,1.35.74,2.62,1.85,4.06,2.14,8,1.66,8.94,2.52,9.88,10.43a48,48,0,0,1,.34,5.62q0,36,0,72.08c0,2.43-.38,4.86-.58,7.29-.45,5.53-3.37,8.43-9,8.9-2.23.18-4.41,1.07-6.62,1.64v2.16a31.31,31.31,0,0,0,5.68,1c8.25,0,16.5-.37,24.75-.41,4.12,0,8.25.5,12.37.46,1.23,0,2.46-1.09,3.69-1.68-1.11-1-2.18-2-3.37-2.9-.4-.29-1.09-.18-1.64-.28-7.24-1.21-9.19-2.76-9.62-10.09-.56-9.73-.45-19.5-.38-29.25a5.64,5.64,0,0,1,2.19-4.14c4.84-2.91,17.68.19,21.75,4.26,15.51,15.48,30.58,31.51,47,45.91,20.82,18.21,45.47,25.66,73.2,20.64,2.94-.53,5.8-1.55,8.69-2.35l-.3-1.76A30.91,30.91,0,0,0,1818.39,655.27Zm-127.78-73.48c-4.68.28-9.37.08-14.06.2-4.36.11-6-2-5.9-6.25.14-6.94,0-13.89,0-20.83,0-7.13-.25-14.28.18-21.38.11-1.75,2.54-4.86,3.74-4.78,7.77.48,16,.37,23.13,2.93,13.65,4.86,18.38,19.68,13,34.91C1707.25,576.26,1700.61,581.2,1690.61,581.79Z"/><path class="cls-2" d="M1489.76,434.15a29.06,29.06,0,0,0-5.26,1.89c.19.56.37,1.12.55,1.68h48.59L1534,436a27.07,27.07,0,0,0-5-1.78c-9.33-1.39-11.45-3.05-11.6-12.57-.42-27.78-.39-55.56-.58-83.35,0-3.52,1.47-5,5.09-5q23.37.15,46.72,0c3.78,0,4.84,1.74,4.83,5.18-.16,28-.14,55.94-.38,83.91-.06,8.09-2.57,10.41-10.71,11.71a43.86,43.86,0,0,0-5.69,1.67l.35,1.83h48.58c.1-.59.2-1.18.29-1.77a33.55,33.55,0,0,0-5.24-1.67c-9-1.37-11.36-3.68-11.41-12.89q-.24-40,0-80c.06-9.76,2.22-11.76,11.62-13.14,1.7-.25,3.22-1.65,4.83-2.52-1.71-.68-3.43-2-5.12-1.93-10.11.34-20.21,1.51-30.31,1.42-26.62-.22-53.24-1-79.85-1.4-1.88,0-3.77,1.22-5.66,1.87,1.8.9,3.52,2.31,5.41,2.61,8.67,1.36,10.75,2.8,10.86,12q.49,40.83,0,81.66C1501,431,1498.69,432.71,1489.76,434.15Z"/><path class="cls-2" d="M1369.93,531.31c-12.15-7.27-25.62-9.19-38.9-9.79-17.19.24-32.83,3.76-46.87,13.32-29.3,19.94-33.09,59.6-7.91,84.33s77.64,25.27,103.47.78C1407.67,593.45,1403,551.1,1369.93,531.31Zm7.84,52.84c.31,24-11.41,41.35-31.51,47-29.51,8.24-58.22-8.81-65.15-38.77-3.12-13.48-3.42-26.94,2.45-39.76,9.1-19.87,31.91-30,55-24.76,22.09,5,37.18,23.37,39.17,47.88C1378,578.51,1377.77,581.34,1377.77,584.15Z"/><path class="cls-2" d="M1099.89,427.79c1.47,1.41,2.7,3.37,4.45,4.14q16.2,7.17,32.62,13.8c1.72.7,3.94.17,5.93.21-1.15-1.61-2-3.56-3.5-4.78-3.3-2.71-7.67-4.6-7-10a96.44,96.44,0,0,1,2.08-11c1.31-5.23,4.85-7.78,10.28-7.75,6.94,0,13.88,0,20.82,0v-.06c6.19,0,12.41.32,18.57-.08,6.47-.43,10.34,2.28,12.36,8.21.67,1.95,1.6,3.81,2.34,5.73,3.66,9.45,3.09,11.17-5,17.5-1.07.84-1.45,2.56-2.15,3.88,1.36.07,2.93.63,4,.14q17.74-7.85,35.33-16.05c1.07-.5,1.62-2.12,2.41-3.22-1.29-.39-2.78-1.4-3.84-1.07-11.86,3.8-13.93-.89-17.79-9.76q-9.42-21.66-18.22-43.59-7.36-18.26-14.15-36.74c-2.12-5.75-.67-7.8,5.39-9a16.1,16.1,0,0,0,3.32-.56,37.46,37.46,0,0,0,4.29-2.64c-1.63-.78-3.25-2.21-4.88-2.22q-18-.17-36,.26c-1.66,0-3.3,1.42-4.94,2.17,1.61.93,3.13,2.35,4.87,2.71,9.07,1.85,11.35,5.09,9.3,14.23a36.28,36.28,0,0,1-2.52,6.84c-4.57,10.08-9.1,20.17-13.86,30.16-6.61,13.87-12.83,28-20.3,41.36-5.06,9.07-7.77,9.14-17.78,6.53C1104.39,426.6,1102.05,427.53,1099.89,427.79Zm45-31.1q10-22,20.19-43.93c.27-.58,1.1-.9,2.74-2.16,2.51,6.23,4.69,11.76,7,17.26,3.7,9,7.49,18,11.16,27,2.46,6,1.29,7.85-5.26,7.9-10.5.07-21,0-31.5-.06C1144.93,402.7,1143,400.83,1144.86,396.69Z"/><path class="cls-2" d="M1698.14,436.09A51,51,0,0,0,1738,439c24.14-7.92,31.27-32.64,14.51-51.85-4.35-5-10.34-8.54-15.71-12.58-8.47-6.39-18-11.71-25.36-19.17-9.19-9.29-5.49-23.79,6.28-27.35,5.57-1.67,11.81-1.78,17.7-1.55,7.47.29,12.53,4.42,14.43,12A27.07,27.07,0,0,0,1752,343c2.53-3.78,2.92-16.54.84-19.32a5.17,5.17,0,0,0-2.72-1.69c-11.61-3.06-23.24-3.85-35-.52-18.31,5.21-26.13,21.94-18.22,39.28,4.47,9.8,12.33,16.3,21.14,22,7.08,4.55,14.59,8.68,20.91,14.16,11.89,10.33,11.35,28-.37,35.44a27.79,27.79,0,0,1-41.17-15.1c-.75-2.41-1.65-4.77-2.48-7.15l-1.59,0c-.46,1.54-1.24,3.06-1.31,4.62-.19,3.93.07,7.88-.09,11.82C1691.75,431.19,1694,434,1698.14,436.09Z"/><path class="cls-2" d="M1631.41,434.1a35.42,35.42,0,0,0-5.48,1.79c.13.62.27,1.24.4,1.87h48.08c.19-.59.37-1.18.56-1.77a19.6,19.6,0,0,0-4-1.75c-10.59-2-12.32-3.61-12.4-14.31q-.26-38.82,0-77.66c.08-10.89,1.7-12.3,12.34-14.19,1.38-.25,2.57-1.52,3.86-2.32-1.46-.75-2.91-2.14-4.37-2.16q-19.68-.25-39.37,0c-1.59,0-3.17,1.16-4.76,1.78,1.52.94,3,2.49,4.57,2.74,9.65,1.49,11.7,3.27,11.76,13q.26,40.25,0,80.48C1642.49,430.41,1640,432.74,1631.41,434.1Z"/><path class="cls-2" d="M1839.84,584.87a29.26,29.26,0,1,0,29.3,29.28A29,29,0,0,0,1839.84,584.87Zm.32,54.38a25.28,25.28,0,0,1-25.51-25.2,25.53,25.53,0,0,1,25-25.26c13.78-.2,25.52,11.43,25.52,25.3A25.36,25.36,0,0,1,1840.16,639.25Z"/><path class="cls-2" d="M1662.69,294.54l-12.11-11-12.83,10.24,11.92,12.46Z"/><path class="cls-2" d="M1316.28,580.33l11.18,11.43L1341.18,580,1328.6,568.8Z"/><path class="cls-2" d="M1847.71,614.82c3.74-2.83,4.74-6.64,3.68-11s-4.44-6.47-8.68-6.75c-4.39-.29-8.82-.07-13.22-.07v34.42L1835,631V617.94l1.48-1.2c1.9,1.49,4.07,2.75,5.64,4.54a25.07,25.07,0,0,1,3.73,6.25c1.67,3.71,4.17,4.77,8.32,3.14l-8.43-14.19C1846.6,615.76,1847.13,615.26,1847.71,614.82Zm-2.64-5.3c-2.52,2-5.78,3-10,5V601c3.66,1.09,7,1.65,9.81,3.19C1845.77,604.62,1846,608.81,1845.07,609.52Z"/></svg>